HIERARCHY
ROOT hip
{
  OFFSET 0 0 0
  CHANNELS 6 Xposition Yposition Zposition Zrotation Yrotation Xrotation
  JOINT abdomen
  {
    OFFSET 0 20.6881 -0.73152
    CHANNELS 3 Zrotation Xrotation Yrotation
    JOINT chest
    {
      OFFSET 0 11.7043 -0.48768
      CHANNELS 3 Zrotation Xrotation Yrotation
      JOINT neck
      {
        OFFSET 0 22.1894 -2.19456
        CHANNELS 3 Zrotation Xrotation Yrotation
        JOINT head
        {
          OFFSET -0.24384 7.07133 1.2192
          CHANNELS 3 Zrotation Xrotation Yrotation
          JOINT leftEye
          {
            OFFSET 4.14528 8.04674 8.04672
            CHANNELS 3 Zrotation Xrotation Yrotation
            End Site
            {
              OFFSET 1 0 0
            }
          }
          JOINT rightEye
          {
            OFFSET -3.6576 8.04674 8.04672
            CHANNELS 3 Zrotation Xrotation Yrotation
            End Site
            {
              OFFSET 1 0 0
            }
          }
        }
      }
      JOINT rCollar
      {
        OFFSET -2.68224 19.2634 -4.8768
        CHANNELS 3 Zrotation Xrotation Yrotation
        JOINT rShldr
        {
          OFFSET -8.77824 -1.95073 1.46304
          CHANNELS 3 Zrotation Xrotation Yrotation
          JOINT rForeArm
          {
            OFFSET -28.1742 -1.7115 0.48768
            CHANNELS 3 Zrotation Xrotation Yrotation
            JOINT rHand
            {
              OFFSET -22.5879 0.773209 7.07136
              CHANNELS 3 Zrotation Xrotation Yrotation
              JOINT rThumb1
              {
                OFFSET -1.2192 -0.487915 3.41376
                CHANNELS 3 Zrotation Xrotation Yrotation
                JOINT rThumb2
                {
                  OFFSET -3.37035 -0.52449 3.41376
                  CHANNELS 3 Zrotation Xrotation Yrotation
                  End Site
                  {
                    OFFSET -1.78271 -1.18214 1.43049
                  }
                }
              }
              JOINT rIndex1
              {
                OFFSET -7.75947 0.938293 5.60832
                CHANNELS 3 Zrotation Xrotation Yrotation
                JOINT rIndex2
                {
                  OFFSET -2.54057 -0.884171 1.56538
                  CHANNELS 3 Zrotation Xrotation Yrotation
                  End Site
                  {
                    OFFSET -1.62519 -0.234802 1.16502
                  }
                }
              }
              JOINT rMid1
              {
                OFFSET -8.24714 1.18213 3.41376
                CHANNELS 3 Zrotation Xrotation Yrotation
                JOINT rMid2
                {
                  OFFSET -3.10165 -0.590103 1.0647
                  CHANNELS 3 Zrotation Xrotation Yrotation
                  End Site
                  {
                    OFFSET -2.48547 -0.328903 0.83742
                  }
                }
              }
              JOINT rRing1
              {
                OFFSET -8.82822 0.546677 1.51678
                CHANNELS 3 Zrotation Xrotation Yrotation
                JOINT rRing2
                {
                  OFFSET -2.60934 -0.819778 -0.0198488
                  CHANNELS 3 Zrotation Xrotation Yrotation
                  End Site
                  {
                    OFFSET -2.33842 -0.294052 0.168128
                  }
                }
              }
              JOINT rPinky1
              {
                OFFSET -8.27202 -0.0477905 -0.4584
                CHANNELS 3 Zrotation Xrotation Yrotation
                JOINT rPinky2
                {
                  OFFSET -1.82734 -0.647385 -0.700984
                  CHANNELS 3 Zrotation Xrotation Yrotation
                  End Site
                  {
                    OFFSET -1.69225 -0.51767 -0.607171
                  }
                }
              }
            }
          }
        }
      }
      JOINT lCollar
      {
        OFFSET 2.68224 19.2634 -4.8768
        CHANNELS 3 Zrotation Xrotation Yrotation
        JOINT lShldr
        {
          OFFSET 8.77824 -1.95073 1.46304
          CHANNELS 3 Zrotation Xrotation Yrotation
          JOINT lForeArm
          {
            OFFSET 28.1742 -1.7115 0.48768
            CHANNELS 3 Zrotation Xrotation Yrotation
            JOINT lHand
            {
              OFFSET 22.5879 0.773209 7.07136
              CHANNELS 3 Zrotation Xrotation Yrotation
              JOINT lThumb1
              {
                OFFSET 1.2192 -0.487915 3.41376
                CHANNELS 3 Zrotation Xrotation Yrotation
                JOINT lThumb2
                {
                  OFFSET 3.37035 -0.52449 3.41376
                  CHANNELS 3 Zrotation Xrotation Yrotation
                  End Site
                  {
                    OFFSET 1.78271 -1.18214 1.43049
                  }
                }
              }
              JOINT lIndex1
              {
                OFFSET 7.75947 0.938293 5.60832
                CHANNELS 3 Zrotation Xrotation Yrotation
                JOINT lIndex2
                {
                  OFFSET 2.54057 -0.884171 1.56538
                  CHANNELS 3 Zrotation Xrotation Yrotation
                  End Site
                  {
                    OFFSET 1.62519 -0.234802 1.16502
                  }
                }
              }
              JOINT lMid1
              {
                OFFSET 8.24714 1.18213 3.41376
                CHANNELS 3 Zrotation Xrotation Yrotation
                JOINT lMid2
                {
                  OFFSET 3.10165 -0.590103 1.0647
                  CHANNELS 3 Zrotation Xrotation Yrotation
                  End Site
                  {
                    OFFSET 2.48547 -0.328903 0.83742
                  }
                }
              }
              JOINT lRing1
              {
                OFFSET 8.82822 0.546677 1.51678
                CHANNELS 3 Zrotation Xrotation Yrotation
                JOINT lRing2
                {
                  OFFSET 2.60934 -0.819778 -0.0198488
                  CHANNELS 3 Zrotation Xrotation Yrotation
                  End Site
                  {
                    OFFSET 2.33842 -0.294052 0.168128
                  }
                }
              }
              JOINT lPinky1
              {
                OFFSET 8.27202 -0.0477905 -0.4584
                CHANNELS 3 Zrotation Xrotation Yrotation
                JOINT lPinky2
                {
                  OFFSET 1.82734 -0.647385 -0.700984
                  CHANNELS 3 Zrotation Xrotation Yrotation
                  End Site
                  {
                    OFFSET 1.69225 -0.51767 -0.607171
                  }
                }
              }
            }
          }
        }
      }
    }
  }
  JOINT rButtock
  {
    OFFSET -8.77824 4.35084 1.2192
    CHANNELS 3 Zrotation Xrotation Yrotation
    JOINT rThigh
    {
      OFFSET 0 -1.70687 -2.19456
      CHANNELS 3 Zrotation Xrotation Yrotation
      JOINT rShin
      {
        OFFSET 0 -36.8199 0.73152
        CHANNELS 3 Zrotation Xrotation Yrotation
        JOINT rFoot
        {
          OFFSET 0.73152 -45.1104 -5.12064
          CHANNELS 3 Zrotation Xrotation Yrotation
          End Site
          {
            OFFSET -1.1221 -3.69964 12.103
          }
        }
      }
    }
  }
  JOINT lButtock
  {
    OFFSET 8.77824 4.35084 1.2192
    CHANNELS 3 Zrotation Xrotation Yrotation
    JOINT lThigh
    {
      OFFSET 0 -1.70687 -2.19456
      CHANNELS 3 Zrotation Xrotation Yrotation
      JOINT lShin
      {
        OFFSET 0 -36.8199 0.73152
        CHANNELS 3 Zrotation Xrotation Yrotation
        JOINT lFoot
        {
          OFFSET -0.73152 -45.1104 -5.12064
          CHANNELS 3 Zrotation Xrotation Yrotation
          End Site
          {
            OFFSET 1.1221 -3.69964 12.103
          }
        }
      }
    }
  }
}
MOTION
Frames:	5
Frame Time:	0.00833333
0.0 0.0 0.0 0.0 0.0 0.0 0.0 0.0 0.0 0.0 0.0 0.0 0.0 0.0 0.0 0.0 0.0 0.0 0.0 0.0 0.0 0.0 0.0 0.0 0.0 0.0 0.0 0.0 0.0 0.0 0.0 0.0 0.0 0.0 0.0 0.0 0.0 0.0 0.0 0.0 0.0 0.0 0.0 0.0 0.0 0.0 0.0 0.0 0.0 0.0 0.0 0.0 0.0 0.0 0.0 0.0 0.0 0.0 0.0 0.0 0.0 0.0 0.0 0.0 0.0 0.0 0.0 0.0 0.0 0.0 0.0 0.0 0.0 0.0 0.0 0.0 0.0 0.0 0.0 0.0 0.0 0.0 0.0 0.0 0.0 0.0 0.0 0.0 0.0 0.0 0.0 0.0 0.0 0.0 0.0 0.0 0.0 0.0 0.0 0.0 0.0 0.0 0.0 0.0 0.0 0.0 0.0 0.0 0.0 0.0 0.0 0.0 0.0 0.0 0.0 0.0 0.0 0.0 0.0 0.0 0.0 0.0 0.0 0.0 0.0 0.0 0.0 0.0 0.0 0.0 0.0 0.0
-36.232 83.1429 18.587699999999998 11.397124 81.262417 20.265246 -0.786684 -2.821155 -7.011305 -0.814187 0.718739 8.434992 0.334529 21.362373 -156.989558 8.578254 17.277388 155.875355 -0.000463 -0.0 0.003429 -0.000366 -0.0 0.002785 -9.652 34.836128 11.199365 -154.706712 -43.482927 167.206727 -2.76962 86.461876 13.733169 -6.014132 27.005559 1.414285 1.841473 -1.827551 -0.253789 175.835939 -81.018582 100.210095 -133.601113 11.791741 111.653275 141.909313 -66.025528 86.40472 23.905816 -61.333454 1.402448 -168.616153 -20.613424 144.192472 -145.100751 -1.523318 -178.65025 -156.81199 56.868656 173.800127 -26.56447 -38.860739 -25.606113 -147.203675 13.60421 -143.824611 59.831365 -86.7216 81.631627 171.732809 14.45247 177.270326 -42.596599 -88.660115 -46.019431 5.410083 16.978449 -0.213031 -171.559842 -25.004938 -87.391106 153.866973 7.906121 -87.003141 149.661413 -14.029235 -120.54151 9.77626 33.417234 -1.173099 89.836267 60.702953 -81.262574 -7.475118 -12.274385 1.020843 0.019899 -1.725868 0.543677 -11.248662 -13.787313 1.714359 -0.097899 0.258493 -0.091052 147.844962 13.362748 144.096033 -179.995319 75.750268 -0.00483 175.9148 63.325616 -177.719808 -8.072948 -30.259527 -56.05292 56.80136 52.570181 -144.887141 179.987295 75.750268 0.008693 176.830777 65.894895 -176.52872 7.970007 -14.01495 70.008232 -48.139252 69.456931 130.720394
-35.284 83.1918 18.4955 9.690967 81.665989 18.414097 -0.46203 -7.30279 -68.830997 -4.130245 -1.973151 71.886571 -7.42931 13.497874 -77.469208 10.193545 4.212474 78.900053 -0.000672 0.0 -0.001434 -0.000672 0.0 -0.001434 0.482834 -3.000699 -0.654228 -121.405425 -18.958867 -176.35794 -139.301269 -35.856087 -165.58466 17.684088 -32.008991 11.255549 -0.54322 0.536505 0.086179 -7.801379 8.671415 6.958034 -14.226659 19.204391 9.558441 -178.119928 -32.266117 107.372754 12.029159 -37.299229 -3.219394 -170.239215 -25.695734 144.258598 -145.118173 0.26806 -179.211891 -153.937689 -14.465356 -177.202471 -7.144831 -15.707368 -6.727671 20.651207 60.730328 9.488527 1.707961 9.149688 -2.181099 126.361618 -5.298285 -169.339187 -169.498241 40.422269 158.235399 14.832924 40.490075 -4.030572 -11.109828 -11.092217 0.639392 -1.219181 -7.040577 9.048467 19.225804 24.164288 -13.425533 -166.60139 -45.909372 -100.305291 -23.906825 -61.333284 -1.401837 168.966016 -21.665687 -144.202641 145.118215 0.30993 179.226085 -11.191926 13.761252 7.374573 14.10415 -26.510511 13.433967 -2.624422 -1.053708 0.445648 -0.00052 0.00015 0.000669 -5.361167 -18.139395 -180.0 -1.16286 -38.529573 153.404373 156.670311 -30.35919 -11.683867 179.984542 75.748495 0.010576 175.72496 62.629234 -0.0 -8.814058 19.998669 -141.74295 -120.390488 33.992249 -175.611096
-34.3352 83.2561 18.3102 11.139314 82.066742 19.633682 -2.172997 -12.302867 -129.568699 -2.532418 -6.719381 133.930311 -6.857598 17.693928 -91.689141 11.075436 5.537483 93.543015 -0.002035 0.0 -0.000533 0.003593 0.0 0.000399 -155.516103 -3.589987 161.853313 -65.057777 32.131696 13.220579 -172.826313 57.131309 -160.99029 -7.516412 44.003699 4.367483 51.059359 -41.203806 12.857721 -15.829118 -6.537457 -16.10696 -6.818049 10.180914 4.248221 6.959136 4.822001 0.278502 173.119955 -66.297439 137.610596 84.537847 -77.980157 56.076572 -73.162037 -72.142341 -90.198213 -149.771494 -27.991081 -179.747487 -26.563336 -38.861613 -25.604654 -146.256884 10.53655 -143.098354 -0.163481 -0.989924 0.219384 -69.36536 -14.167122 -3.019263 -82.73881 -47.677998 -61.429485 146.826457 64.358328 -123.922563 -2.436545 -2.418629 0.32458 100.095016 14.810574 -91.160494 142.519474 -1.471343 -117.221502 161.044489 -11.530976 -119.160485 0.05812 0.167861 -0.031397 34.366361 55.163308 -28.968874 70.64155 72.964418 -88.426235 87.940493 83.046642 -96.928845 -0.09954 0.258188 -0.091108 -15.152314 44.003346 -8.724409 0.005953 -0.000105 0.002976 -9.008821 -23.336214 180.0 -21.637772 -63.464201 -27.421435 -88.037807 26.96762 -179.771232 179.990036 75.749836 0.006818 176.553523 57.865306 -15.379574 -17.938953 16.611644 -87.215077 148.768182 -12.366194 -139.498154
-33.3758 83.3609 18.0045 15.083318 82.36847 23.400673 -4.834369 -10.143207 -1.052074 -2.229338 2.780221 5.970566 -2.714889 24.48576 -132.021304 12.050019 11.619059 132.692751 -0.001445 -0.0 0.002125 -0.001445 -0.0 0.002125 -120.448821 60.63742 124.075725 -109.997128 3.14294 77.082458 -85.876585 -61.736597 -140.890732 68.118111 -62.1257 60.218127 88.92811 -50.831824 37.5999 -33.24 5.252818 -7.992756 -138.492703 4.89606 114.86475 -170.208259 -28.079501 118.129914 -10.976906 25.789479 7.641274 -7.226779 26.206722 6.056821 0.002588 0.605647 0.189323 -155.494609 -1.617108 172.042283 -145.498208 13.104265 -142.110376 -162.427767 55.860599 -146.673698 -0.16282 -0.990004 0.219149 91.053133 -12.867747 -173.72922 1.102146 -26.045074 61.547094 -165.251094 -30.669302 -141.118392 -4.530698 -4.514175 0.520976 128.606244 -21.386945 -115.335924 43.646882 38.804908 -34.059124 -179.695174 -33.390583 -108.983302 8.304919 20.65261 -5.561594 175.876134 -41.097123 -143.080619 145.118985 0.186012 179.185491 -12.12549 41.000445 4.3327 145.173016 12.068322 141.821687 21.362735 -36.805338 22.938693 0.000946 -0.001431 0.000473 -11.222721 -25.07825 -25.085475 -18.312832 66.675758 129.087054 -158.378826 11.613251 127.725346 0.0 -0.000419 7.2e-05 -2.0958 -20.709214 -5.908226 -1.910568 20.047219 57.082942 179.611151 -26.30792 29.726479
